HIERARCHY
ROOT root
{
	OFFSET	0	13.1	24.9
	CHANNELS 6  Xposition Yposition Zposition Xrotation Yrotation Zrotation
	JOINT spine_1
	{
		OFFSET	0	9.99999	0
		CHANNELS 3  Xrotation Yrotation Zrotation
		JOINT spine_2
		{
			OFFSET	0	112	-10
			CHANNELS 3  Xrotation Yrotation Zrotation
			JOINT spine_3
			{
				OFFSET	0	206.5	19.3
				CHANNELS 3  Xrotation Yrotation Zrotation
				JOINT spine_4
				{
					OFFSET	0	110.4	14.6
					CHANNELS 3  Xrotation Yrotation Zrotation
					JOINT neck_1
					{
						OFFSET	0	71.8	-50.3
						CHANNELS 3  Xrotation Yrotation Zrotation
						JOINT neck_2
						{
							OFFSET	0	86.2	-25.8
							CHANNELS 3  Xrotation Yrotation Zrotation
							JOINT head_ee
							{
								OFFSET	0	179.8	-8.7
								CHANNELS 3  Xrotation Yrotation Zrotation
								End Site
								{
									OFFSET	1	0	0
								}
							}
						}
					}
					JOINT left_clavicle
					{
						OFFSET	-43.2	22.4	-70.8
						CHANNELS 3  Xrotation Yrotation Zrotation
						JOINT left_shoulder
						{
							OFFSET	-93.9	-5.79999	48.7
							CHANNELS 3  Xrotation Yrotation Zrotation
							JOINT left_elbow
							{
								OFFSET	-291.4	-30.8	15.2
								CHANNELS 3  Xrotation Yrotation Zrotation
								JOINT left_lowarm_twist
								{
									OFFSET	-110.7	-3.89999	13.6
									CHANNELS 3  Xrotation Yrotation Zrotation
									JOINT left_hand
									{
										OFFSET	-110.7	-3.89999	13.6
										CHANNELS 3  Xrotation Yrotation Zrotation
										JOINT left_ee
										{
											OFFSET	-80.8	-5.10001	12.1
											CHANNELS 3  Xrotation Yrotation Zrotation
											End Site
											{
												OFFSET	1	0	0
											}
										}
									}
								}
							}
						}
					}
					JOINT right_clavicle
					{
						OFFSET	43.2	22.4	-70.8
						CHANNELS 3  Xrotation Yrotation Zrotation
						JOINT right_shoulder
						{
							OFFSET	93.9	-5.79999	48.7
							CHANNELS 3  Xrotation Yrotation Zrotation
							JOINT right_elbow
							{
								OFFSET	291.4	-30.8	15.2
								CHANNELS 3  Xrotation Yrotation Zrotation
								JOINT right_lowarm_twist
								{
									OFFSET	110.7	-3.89999	13.6
									CHANNELS 3  Xrotation Yrotation Zrotation
									JOINT right_hand
									{
										OFFSET	110.7	-3.89999	13.6
										CHANNELS 3  Xrotation Yrotation Zrotation
										JOINT right_ee
										{
											OFFSET	80.8	-5.10001	12.1
											CHANNELS 3  Xrotation Yrotation Zrotation
											End Site
											{
												OFFSET	1	0	0
											}
										}
									}
								}
							}
						}
					}
				}
			}
		}
	}
	JOINT left_hip
	{
		OFFSET	-82.8	-127.5	0.300001
		CHANNELS 3  Xrotation Yrotation Zrotation
		JOINT left_knee
		{
			OFFSET	-28.2	-396.7	2.2
			CHANNELS 3  Xrotation Yrotation Zrotation
			JOINT left_ankle
			{
				OFFSET	-11.7	-411.3	35.4
				CHANNELS 3  Xrotation Yrotation Zrotation
				JOINT left_toes
				{
					OFFSET	0	-60	-88.6
					CHANNELS 3  Xrotation Yrotation Zrotation
					JOINT left_foot_ee
					{
						OFFSET	-22.5	-16.5	-42.2
						CHANNELS 3  Xrotation Yrotation Zrotation
						End Site
						{
							OFFSET	1	0	0
						}
					}
				}
			}
		}
	}
	JOINT right_hip
	{
		OFFSET	82.8	-127.5	0.300001
		CHANNELS 3  Xrotation Yrotation Zrotation
		JOINT right_knee
		{
			OFFSET	28.2	-396.7	2.2
			CHANNELS 3  Xrotation Yrotation Zrotation
			JOINT right_ankle
			{
				OFFSET	11.7	-411.3	35.4
				CHANNELS 3  Xrotation Yrotation Zrotation
				JOINT right_toes
				{
					OFFSET	0	-60	-88.6
					CHANNELS 3  Xrotation Yrotation Zrotation
					JOINT right_foot_ee
					{
						OFFSET	22.5	-16.5	-42.2
						CHANNELS 3  Xrotation Yrotation Zrotation
						End Site
						{
							OFFSET	1	0	0
						}
					}
				}
			}
		}
	}
}
MOTION
Frames: 14
Frame Time: 0.02
889.176921272 592.747 -1786.99070385 -39.4867032442 51.5428257181 34.5589493462 9.87991 -0.827993 -0.82786 9.87996 -0.773639 -0.878867 9.89145 -0.738771 -0.908373 9.89136 -0.872956 -0.780303 -9.85725 -10.0887 7.89888 -9.83254 -24.3038 5.21776 -0.0 0.0 -0.0 3.91931 1.6686 7.64211 -20.6407 -26.2789 66.9559 2.3734 -49.6099 1.09704 -85.6311 -8.53071 5.16864 -11.6115 30.821 -65.8661 -0.0 0.0 -0.0 -7.89201 -25.2593 7.60918 -34.5813 38.6063 -67.3965 1.79183 41.5891 -0.680505 15.3228 -0.283173 1.93105 -4.14323 -24.7228 13.794 0.0 0.0 0.0 33.7066 18.9321 2.5694 0.922019 -0.0390641 -0.136094 7.36362 -28.1532 -1.30815 20.7414 -0.0 -0.0 -0.0 0.0 -0.0 50.2361 -2.86686 -4.112 -53.5487 1.54508 -7.7775 43.1254 -22.8191 5.38603 37.2215 -0.0 -0.0 0.0 0.0 0.0 
888.93523077 592.747 -1786.63800202 -39.5932255278 51.6451223767 34.6948840052 9.87991 -0.827993 -0.82786 9.87996 -0.773639 -0.878867 9.89145 -0.738771 -0.908373 9.89136 -0.872956 -0.780303 -9.85725 -10.0887 7.89888 -9.83254 -24.3038 5.21776 -0.0 0.0 -0.0 3.91931 1.6686 7.64211 -20.6407 -26.2789 66.9559 2.3734 -49.6099 1.09704 -85.6311 -8.53071 5.16864 -11.6115 30.821 -65.8661 -0.0 0.0 -0.0 -7.89201 -25.2593 7.60918 -34.5813 38.6063 -67.3965 1.79183 41.5891 -0.680505 15.3228 -0.283173 1.93105 -4.14323 -24.7228 13.794 0.0 0.0 0.0 33.7066 18.9321 2.5694 0.922019 -0.0390641 -0.136094 7.36362 -28.1532 -1.30815 20.7414 -0.0 -0.0 -0.0 0.0 -0.0 50.2361 -2.86686 -4.112 -53.5487 1.54508 -7.7775 43.1254 -22.8191 5.38603 37.2215 -0.0 -0.0 0.0 0.0 0.0 
864.608311191 599.738 -1782.56355754 -43.0640131333 53.6531894538 39.4300183054 10.1564 -0.957879 -1.451 10.1572 -0.863618 -1.509 10.1777 -0.811935 -1.53742 10.1759 -1.04453 -1.38993 -10.3813 -10.5576 8.44968 -10.3899 -25.5248 5.50963 -0.0 0.0 -0.0 4.00398 2.19768 7.82772 -22.5226 -26.8078 70.2618 2.27242 -48.3773 1.02083 -83.9719 -8.32317 5.20868 -12.1339 33.2157 -66.2156 -0.0 0.0 -0.0 -8.62503 -25.8702 8.38899 -35.1326 36.3915 -65.3363 2.33898 49.1966 -1.0709 15.576 -0.283485 1.96339 -4.12682 -23.6734 14.3737 0.0 0.0 0.0 33.0271 17.8424 2.90662 2.10081 -0.092194 -0.309163 14.2721 -31.5943 -2.57423 24.8488 -0.0 -0.0 -0.0 0.0 -0.0 48.3852 2.05804 -1.84503 -39.0283 0.406106 -5.86178 42.062 -25.5995 5.38242 32.8947 -0.0 -0.0 0.0 0.0 0.0 
865.270695388 599.738 -1783.72400489 -42.7172560281 53.3771311975 38.9987379736 10.1564 -0.957879 -1.451 10.1572 -0.863618 -1.509 10.1777 -0.811935 -1.53742 10.1759 -1.04453 -1.38993 -10.3813 -10.5576 8.44968 -10.3899 -25.5248 5.50963 -0.0 0.0 -0.0 4.00398 2.19768 7.82772 -22.5226 -26.8078 70.2618 2.27242 -48.3773 1.02083 -83.9719 -8.32317 5.20868 -12.1339 33.2157 -66.2156 -0.0 0.0 -0.0 -8.62503 -25.8702 8.38899 -35.1326 36.3915 -65.3363 2.33898 49.1966 -1.0709 15.576 -0.283485 1.96339 -4.12682 -23.6734 14.3737 0.0 0.0 0.0 33.0271 17.8424 2.90662 2.10081 -0.092194 -0.309163 14.2721 -31.5943 -2.57423 24.8488 -0.0 -0.0 -0.0 0.0 -0.0 48.3852 2.05804 -1.84503 -39.0283 0.406106 -5.86178 42.062 -25.5995 5.38242 32.8947 -0.0 -0.0 0.0 0.0 0.0 
847.175119438 597.26 -1786.7599441 -47.9991532672 55.4235595213 46.1585975291 10.9104 -0.639414 -1.80977 10.9121 -0.522978 -1.84677 10.9244 -0.48418 -1.85732 10.9204 -0.771389 -1.75759 -11.3203 -11.6533 9.71475 -11.4115 -28.3534 6.19369 -0.0 0.0 -0.0 5.17393 -1.80597 9.94079 -25.9859 -28.6674 71.3163 1.71699 -40.3792 0.631416 -85.5027 -8.5147 5.17195 -12.374 33.7977 -68.3474 -0.0 0.0 -0.0 -8.74762 -24.8814 8.93852 -35.6506 34.5782 -65.3058 2.78719 54.0752 -1.42266 21.7675 -0.246683 2.75297 -3.75185 -22.0177 13.169 0.0 0.0 0.0 32.6266 13.344 2.83643 3.87196 -0.178703 -0.567101 28.6154 -28.9014 -4.5678 26.6475 -0.0 -0.0 -0.0 0.0 -0.0 44.6371 7.79465 -3.74702 -25.4814 -0.190454 -3.87359 42.4059 -26.3925 5.44305 25.3643 -0.0 -0.0 0.0 0.0 0.0 
834.64059828 592.754 -1794.80307435 -49.523367914 56.1799301058 47.7939527483 11.4165 -0.641672 -1.77159 11.4181 -0.52766 -1.80881 11.4302 -0.505702 -1.81507 11.4265 -0.785972 -1.71248 -11.8851 -11.7605 10.355 -12.0138 -28.9201 6.62829 -0.0 0.0 -0.0 5.13135 -3.59516 9.7869 -26.7345 -29.2359 72.6746 1.57337 -37.9302 0.540713 -85.5649 -8.52246 5.17035 -12.3827 33.8395 -68.3329 -0.0 0.0 -0.0 -8.63115 -25.0098 8.72613 -34.5191 31.9717 -66.8047 2.81486 54.3435 -1.4451 21.8593 -0.245495 2.76464 -3.67833 -21.701 12.9191 0.0 0.0 0.0 31.8932 10.3541 2.15848 4.27228 -0.199361 -0.62503 32.4018 -27.0715 -4.92579 25.7447 -0.0 -0.0 -0.0 0.0 -0.0 43.6361 10.2638 -4.20499 -18.2921 -0.312055 -2.77783 36.8944 -27.0318 4.92448 23.4881 -0.0 -0.0 0.0 0.0 0.0 
825.554281751 592.946 -1798.08895917 -50.4371413176 57.0562907082 49.2872202429 11.4347 -0.640812 -1.70635 11.4362 -0.530951 -1.74365 11.4481 -0.510321 -1.7498 11.4447 -0.780229 -1.64729 -12.5922 -12.0976 10.1095 -12.8332 -29.3355 6.07373 -0.0 0.0 -0.0 4.86893 -2.94104 9.28936 -25.9895 -28.7619 73.5385 1.36762 -34.1151 0.419645 -85.5843 -8.52488 5.16985 -12.4127 34.0079 -68.1708 -0.0 0.0 -0.0 -8.73474 -25.3128 8.75438 -34.0905 30.8977 -67.4406 2.8904 55.0584 -1.50675 21.9368 -0.244479 2.77449 -3.48383 -21.3482 11.9589 0.0 0.0 0.0 32.554 11.5373 0.746876 4.76256 -0.225213 -0.695782 32.4109 -25.8864 -4.86327 25.6948 -0.0 -0.0 -0.0 0.0 -0.0 42.1368 9.97966 -3.53365 -17.9444 -0.314441 -2.72454 37.8859 -26.6902 5.01504 23.5352 -0.0 -0.0 0.0 0.0 0.0 
823.557659267 589.217 -1797.79128918 -52.9073351311 58.354131758 52.3165586801 11.4724 -0.622465 -1.78971 11.4741 -0.507339 -1.82567 11.4855 -0.486939 -1.83122 11.4817 -0.769993 -1.73138 -13.6366 -12.3079 9.92752 -14.0185 -29.5209 5.51928 -0.0 0.0 -0.0 4.54474 -2.00035 8.68745 -24.9518 -28.1298 74.5814 1.1117 -28.8408 0.285866 -85.2095 -8.4781 5.17939 -12.4678 34.2809 -68.0294 -0.0 0.0 -0.0 -8.80624 -25.2665 8.87175 -33.5186 29.6148 -67.7177 2.9789 55.8647 -1.57966 22.0885 -0.242451 2.79376 -3.20619 -20.8667 10.5685 0.0 0.0 0.0 32.3597 12.8655 0.745232 4.7706 -0.225641 -0.69694 32.4009 -24.6832 -4.80132 25.625 -0.0 -0.0 -0.0 0.0 -0.0 41.4128 9.37944 -2.93247 -17.4496 -0.317279 -2.64868 39.8173 -26.3545 5.1961 23.713 -0.0 -0.0 0.0 0.0 0.0 
815.588970227 592.642 -1800.24106451 -54.5914587013 59.2054704564 53.7176956856 11.4444 -0.576341 -1.77654 11.446 -0.462147 -1.80959 11.456 -0.440968 -1.81487 11.4521 -0.722017 -1.7225 -14.6302 -12.0454 10.0592 -15.0882 -28.9982 5.45682 -0.0 0.0 -0.0 3.98617 -0.732493 7.65216 -23.6505 -27.1937 76.0122 0.901913 -24.0739 0.192319 -85.1114 -8.46584 5.18183 -12.4569 34.0721 -68.7879 -0.0 0.0 -0.0 -9.14679 -25.2402 9.35775 -33.4087 28.0418 -67.6905 3.11222 57.0191 -1.69076 22.3004 -0.23953 2.82068 -2.876 -20.1935 8.95908 0.0 0.0 0.0 31.882 12.8385 1.15935 4.65501 -0.219489 -0.68028 32.2546 -24.1998 -4.76142 25.5055 -0.0 -0.0 -0.0 0.0 -0.0 40.6929 8.95027 -3.1456 -16.5034 -0.320883 -2.50354 41.4817 -25.9976 5.34269 23.5513 -0.0 -0.0 0.0 0.0 0.0 
815.880022173 592.642 -1800.79721069 -54.3989009577 59.1234632144 53.4934373918 11.4444 -0.576341 -1.77654 11.446 -0.462147 -1.80959 11.456 -0.440968 -1.81487 11.4521 -0.722017 -1.7225 -14.6302 -12.0454 10.0592 -15.0882 -28.9982 5.45682 -0.0 0.0 -0.0 3.98617 -0.732493 7.65216 -23.6505 -27.1937 76.0122 0.901913 -24.0739 0.192319 -85.1114 -8.46584 5.18183 -12.4569 34.0721 -68.7879 -0.0 0.0 -0.0 -9.14679 -25.2402 9.35775 -33.4087 28.0418 -67.6905 3.11222 57.0191 -1.69076 22.3004 -0.23953 2.82068 -2.876 -20.1935 8.95908 0.0 0.0 0.0 31.882 12.8385 1.15935 4.65501 -0.219489 -0.68028 32.2546 -24.1998 -4.76142 25.5055 -0.0 -0.0 -0.0 0.0 -0.0 40.6929 8.95027 -3.1456 -16.5034 -0.320883 -2.50354 41.4817 -25.9976 5.34269 23.5513 -0.0 -0.0 0.0 0.0 0.0 
815.928553673 592.642 -1800.88962184 -54.3669862119 59.1097889478 53.4562499894 11.4444 -0.576341 -1.77654 11.446 -0.462147 -1.80959 11.456 -0.440968 -1.81487 11.4521 -0.722017 -1.7225 -14.6302 -12.0454 10.0592 -15.0882 -28.9982 5.45682 -0.0 0.0 -0.0 3.98617 -0.732493 7.65216 -23.6505 -27.1937 76.0122 0.901913 -24.0739 0.192319 -85.1114 -8.46584 5.18183 -12.4569 34.0721 -68.7879 -0.0 0.0 -0.0 -9.14679 -25.2402 9.35775 -33.4087 28.0418 -67.6905 3.11222 57.0191 -1.69076 22.3004 -0.23953 2.82068 -2.876 -20.1935 8.95908 0.0 0.0 0.0 31.882 12.8385 1.15935 4.65501 -0.219489 -0.68028 32.2546 -24.1998 -4.76142 25.5055 -0.0 -0.0 -0.0 0.0 -0.0 40.6929 8.95027 -3.1456 -16.5034 -0.320883 -2.50354 41.4817 -25.9976 5.34269 23.5513 -0.0 -0.0 0.0 0.0 0.0 
816.761740874 592.642 -1802.46197993 -53.8275058647 58.8750461705 52.8268271441 11.4444 -0.576341 -1.77654 11.446 -0.462147 -1.80959 11.456 -0.440968 -1.81487 11.4521 -0.722017 -1.7225 -14.6302 -12.0454 10.0592 -15.0882 -28.9982 5.45682 -0.0 0.0 -0.0 3.98617 -0.732493 7.65216 -23.6505 -27.1937 76.0122 0.901913 -24.0739 0.192319 -85.1114 -8.46584 5.18183 -12.4569 34.0721 -68.7879 -0.0 0.0 -0.0 -9.14679 -25.2402 9.35775 -33.4087 28.0418 -67.6905 3.11222 57.0191 -1.69076 22.3004 -0.23953 2.82068 -2.876 -20.1935 8.95908 0.0 0.0 0.0 31.882 12.8385 1.15935 4.65501 -0.219489 -0.68028 32.2546 -24.1998 -4.76142 25.5055 -0.0 -0.0 -0.0 0.0 -0.0 40.6929 8.95027 -3.1456 -16.5034 -0.320883 -2.50354 41.4817 -25.9976 5.34269 23.5513 -0.0 -0.0 0.0 0.0 0.0 
818.353828547 592.642 -1805.39491537 -52.8389971708 58.4267266997 51.6693602055 11.4444 -0.576341 -1.77654 11.446 -0.462147 -1.80959 11.456 -0.440968 -1.81487 11.4521 -0.722017 -1.7225 -14.6302 -12.0454 10.0592 -15.0882 -28.9982 5.45682 -0.0 0.0 -0.0 3.98617 -0.732493 7.65216 -23.6505 -27.1937 76.0122 0.901913 -24.0739 0.192319 -85.1114 -8.46584 5.18183 -12.4569 34.0721 -68.7879 -0.0 0.0 -0.0 -9.14679 -25.2402 9.35775 -33.4087 28.0418 -67.6905 3.11222 57.0191 -1.69076 22.3004 -0.23953 2.82068 -2.876 -20.1935 8.95908 0.0 0.0 0.0 31.882 12.8385 1.15935 4.65501 -0.219489 -0.68028 32.2546 -24.1998 -4.76142 25.5055 -0.0 -0.0 -0.0 0.0 -0.0 40.6929 8.95027 -3.1456 -16.5034 -0.320883 -2.50354 41.4817 -25.9976 5.34269 23.5513 -0.0 -0.0 0.0 0.0 0.0 
820.1454172 592.642 -1808.58986169 -51.7882736607 57.9229518174 50.4327472953 11.4444 -0.576341 -1.77654 11.446 -0.462147 -1.80959 11.456 -0.440968 -1.81487 11.4521 -0.722017 -1.7225 -14.6302 -12.0454 10.0592 -15.0882 -28.9982 5.45682 -0.0 0.0 -0.0 3.98617 -0.732493 7.65216 -23.6505 -27.1937 76.0122 0.901913 -24.0739 0.192319 -85.1114 -8.46584 5.18183 -12.4569 34.0721 -68.7879 -0.0 0.0 -0.0 -9.14679 -25.2402 9.35775 -33.4087 28.0418 -67.6905 3.11222 57.0191 -1.69076 22.3004 -0.23953 2.82068 -2.876 -20.1935 8.95908 0.0 0.0 0.0 31.882 12.8385 1.15935 4.65501 -0.219489 -0.68028 32.2546 -24.1998 -4.76142 25.5055 -0.0 -0.0 -0.0 0.0 -0.0 40.6929 8.95027 -3.1456 -16.5034 -0.320883 -2.50354 41.4817 -25.9976 5.34269 23.5513 -0.0 -0.0 0.0 0.0 0.0 
